<svg width="13" height="10" viewBox="0 0 13 10" fill="none" xmlns="http://www.w3.org/2000/svg">
<mask id="path-1-inside-1_221_3" fill="white">
<path d="M12.4492 4.66914L6.17715 0.186133C6.129 0.151953 6.06758 0.132812 6.00283 0.132812H4.53359C4.41074 0.132812 4.3543 0.258594 4.44727 0.324219L10.2611 4.48047H0.545898C0.472852 4.48047 0.413086 4.52969 0.413086 4.58984V5.41016C0.413086 5.47031 0.472852 5.51953 0.545898 5.51953H10.2595L4.44561 9.67578C4.35264 9.74277 4.40908 9.86719 4.53193 9.86719H6.05098C6.08252 9.86719 6.11406 9.85762 6.13731 9.83984L12.4492 5.33086C12.5067 5.2897 12.5528 5.23887 12.5844 5.18179C12.6159 5.12471 12.6323 5.06272 12.6323 5C12.6323 4.93728 12.6159 4.87529 12.5844 4.81821C12.5528 4.76113 12.5067 4.7103 12.4492 4.66914Z"/>
</mask>
<path d="M12.4492 4.66914L6.17715 0.186133C6.129 0.151953 6.06758 0.132812 6.00283 0.132812H4.53359C4.41074 0.132812 4.3543 0.258594 4.44727 0.324219L10.2611 4.48047H0.545898C0.472852 4.48047 0.413086 4.52969 0.413086 4.58984V5.41016C0.413086 5.47031 0.472852 5.51953 0.545898 5.51953H10.2595L4.44561 9.67578C4.35264 9.74277 4.40908 9.86719 4.53193 9.86719H6.05098C6.08252 9.86719 6.11406 9.85762 6.13731 9.83984L12.4492 5.33086C12.5067 5.2897 12.5528 5.23887 12.5844 5.18179C12.6159 5.12471 12.6323 5.06272 12.6323 5C12.6323 4.93728 12.6159 4.87529 12.5844 4.81821C12.5528 4.76113 12.5067 4.7103 12.4492 4.66914Z" fill="#1F3C88"/>
<path d="M12.4492 4.66914L14.7781 1.41704L14.7752 1.41493L12.4492 4.66914ZM6.17715 0.186133L8.50313 -3.06809L8.4927 -3.07549L6.17715 0.186133ZM4.44727 0.324219L6.77351 -2.92979L6.76378 -2.93675L6.754 -2.94365L4.44727 0.324219ZM10.2611 4.48047V8.48047H22.7345L12.5874 1.22646L10.2611 4.48047ZM10.2595 5.51953L12.5857 8.77354L22.7328 1.51953H10.2595V5.51953ZM4.44561 9.67578L2.11936 6.42177L2.11324 6.42615L2.10713 6.43055L4.44561 9.67578ZM6.13731 9.83984L3.81219 6.58503L3.75922 6.62287L3.70751 6.66241L6.13731 9.83984ZM12.4492 5.33086L14.7743 8.58568L14.7781 8.58296L12.4492 5.33086ZM12.6323 5H8.63227H12.6323ZM14.7752 1.41493L8.50312 -3.06808L3.85118 3.44034L10.1233 7.92335L14.7752 1.41493ZM8.4927 -3.07549C7.72094 -3.6234 6.83773 -3.86719 6.00283 -3.86719V4.13281C5.29743 4.13281 4.53707 3.9273 3.86159 3.44776L8.4927 -3.07549ZM6.00283 -3.86719H4.53359V4.13281H6.00283V-3.86719ZM4.53359 -3.86719C3.08226 -3.86719 1.49812 -3.07335 0.761983 -1.43793C-0.0572575 0.382094 0.559865 2.47632 2.14053 3.59209L6.754 -2.94365C8.2417 -1.89351 8.84056 0.105016 8.05701 1.84575C7.35656 3.40186 5.86208 4.13281 4.53359 4.13281V-3.86719ZM2.12102 3.57823L7.93489 7.73448L12.5874 1.22646L6.77351 -2.92979L2.12102 3.57823ZM10.2611 0.480469H0.545898V8.48047H10.2611V0.480469ZM0.545898 0.480469C-0.974692 0.480469 -3.58691 1.6291 -3.58691 4.58984H4.41309C4.41309 5.95553 3.72669 6.99769 2.99493 7.60032C2.26863 8.19844 1.39184 8.48047 0.545898 8.48047V0.480469ZM-3.58691 4.58984V5.41016H4.41309V4.58984H-3.58691ZM-3.58691 5.41016C-3.58691 8.3709 -0.974692 9.51953 0.545898 9.51953V1.51953C1.39184 1.51953 2.26863 1.80156 2.99493 2.39968C3.72669 3.00231 4.41309 4.04447 4.41309 5.41016H-3.58691ZM0.545898 9.51953H10.2595V1.51953H0.545898V9.51953ZM7.93323 2.26552L2.11936 6.42177L6.77185 12.9298L12.5857 8.77354L7.93323 2.26552ZM2.10713 6.43055C0.574541 7.53491 -0.0678115 9.6066 0.762986 11.4443C1.50792 13.0922 3.10207 13.8672 4.53193 13.8672V5.86719C5.83894 5.86719 7.34345 6.58 8.05269 8.14886C8.84779 9.90765 8.2237 11.8836 6.78408 12.921L2.10713 6.43055ZM4.53193 13.8672H6.05098V5.86719H4.53193V13.8672ZM6.05098 13.8672C6.82735 13.8672 7.74714 13.6443 8.56711 13.0173L3.70751 6.66241C4.48098 6.07093 5.33769 5.86719 6.05098 5.86719V13.8672ZM8.46242 13.0947L14.7743 8.58568L10.1241 2.07604L3.81219 6.58503L8.46242 13.0947ZM14.7781 8.58296C15.2778 8.22514 15.7415 7.73791 16.0844 7.11822L9.08432 3.24537C9.36401 2.73982 9.73559 2.35426 10.1203 2.07876L14.7781 8.58296ZM16.0844 7.11822C16.4303 6.49305 16.6323 5.76773 16.6323 5H8.63227C8.63227 4.35772 8.80159 3.75638 9.08432 3.24537L16.0844 7.11822ZM16.6323 5C16.6323 4.23227 16.4303 3.50695 16.0844 2.88178L9.08432 6.75463C8.80159 6.24362 8.63227 5.64228 8.63227 5H16.6323ZM16.0844 2.88178C15.7415 2.26209 15.2778 1.77486 14.7781 1.41704L10.1203 7.92124C9.73559 7.64574 9.36401 7.26018 9.08432 6.75463L16.0844 2.88178Z" fill="#1F3C88" mask="url(#path-1-inside-1_221_3)"/>
</svg>
