<svg width="13" height="14" viewBox="0 0 13 14" fill="none" xmlns="http://www.w3.org/2000/svg">
<path fill-rule="evenodd" clip-rule="evenodd" d="M10.0047 3.50569C10.0047 5.34162 8.51674 6.82955 6.68081 6.82955C4.84488 6.82955 3.35695 5.34162 3.35695 3.50569C3.35695 1.66976 4.84488 0.181824 6.68081 0.181824C8.51674 0.181824 10.0047 1.66976 10.0047 3.50569ZM8.57381 7.66055H9.00751C10.9343 7.66055 12.4975 9.22376 12.4975 11.1506V12.2308C12.4975 12.919 11.9393 13.4773 11.2511 13.4773H2.11051C1.42235 13.4773 0.864014 12.919 0.864014 12.2308V11.1506C0.864014 9.22376 2.42729 7.66055 4.3541 7.66055H4.78774C5.36681 7.92537 6.00561 8.07598 6.68081 8.07598C7.35595 8.07598 7.99733 7.92537 8.57381 7.66055Z" fill="white"/>
</svg>
