<svg width="15" height="12" viewBox="0 0 15 12" fill="none" xmlns="http://www.w3.org/2000/svg">
<path d="M13.9286 5.71415C13.0804 4.23621 12.0173 3.13089 10.7394 2.39819C11.0798 3.04948 11.25 3.754 11.25 4.51176C11.25 5.67031 10.8831 6.66134 10.1493 7.48485C9.41546 8.30836 8.53237 8.72011 7.5 8.72011C6.46763 8.72011 5.58454 8.30836 4.85073 7.48485C4.11691 6.66134 3.75 5.67031 3.75 4.51176C3.75 3.754 3.9202 3.04948 4.2606 2.39819C2.9827 3.13089 1.91964 4.23621 1.07143 5.71415C1.81362 6.99794 2.74414 8.02028 3.863 8.78117C4.98186 9.54206 6.1942 9.9225 7.5 9.9225C8.8058 9.9225 10.0181 9.54206 11.137 8.78117C12.2559 8.02028 13.1864 6.99794 13.9286 5.71415ZM7.90179 2.10699C7.90179 1.98174 7.86272 1.87528 7.7846 1.7876C7.70647 1.69993 7.61161 1.65609 7.5 1.65609C6.80246 1.65609 6.20396 1.93633 5.70452 2.49682C5.20508 3.05731 4.95536 3.72895 4.95536 4.51176C4.95536 4.63701 4.99442 4.74347 5.07254 4.83114C5.15067 4.91882 5.24554 4.96265 5.35714 4.96265C5.46875 4.96265 5.56362 4.91882 5.64174 4.83114C5.71987 4.74347 5.75893 4.63701 5.75893 4.51176C5.75893 3.97319 5.92913 3.5129 6.26953 3.13089C6.60993 2.74888 7.02009 2.55788 7.5 2.55788C7.61161 2.55788 7.70647 2.51404 7.7846 2.42637C7.86272 2.3387 7.90179 2.23223 7.90179 2.10699ZM15 5.71415C15 5.92707 14.9442 6.14312 14.8326 6.36231C14.0513 7.80267 13.0008 8.95652 11.6811 9.82386C10.3613 10.6912 8.96763 11.1249 7.5 11.1249C6.03237 11.1249 4.63867 10.6896 3.31892 9.81917C1.99916 8.94869 0.948661 7.7964 0.167411 6.36231C0.0558036 6.14312 0 5.92707 0 5.71415C0 5.50122 0.0558036 5.28517 0.167411 5.06598C0.948661 3.63189 1.99916 2.4796 3.31892 1.60912C4.63867 0.738645 6.03237 0.303406 7.5 0.303406C8.96763 0.303406 10.3613 0.738645 11.6811 1.60912C13.0008 2.4796 14.0513 3.63189 14.8326 5.06598C14.9442 5.28517 15 5.50122 15 5.71415Z" fill="white"/>
</svg>
