<svg width="24" height="24" viewBox="0 0 24 24" fill="none" xmlns="http://www.w3.org/2000/svg">
<path fill-rule="evenodd" clip-rule="evenodd" d="M0.384766 23.5694H12.5126V5.96606H0.384766V23.5694ZM7.12243 20.8612H5.7749V19.5071H7.12243V20.8612ZM7.12243 18.153H5.7749V16.7989H7.12243V18.153ZM7.12243 15.4448H5.7749V14.0907H7.12243V15.4448ZM9.81748 20.8612H8.46996V16.7989H9.81748V20.8612ZM9.81748 15.4448H8.46996V14.0907H9.81748V15.4448ZM3.07984 8.67426H9.81748V12.7366H3.07984V8.67426ZM3.07984 14.0907H4.42737V15.4448H3.07984V14.0907ZM3.07984 16.7989H4.42737V18.153H3.07984V16.7989ZM3.07984 19.5071H4.42737V20.8612H3.07984V19.5071Z" fill="#1565C0"/>
<path fill-rule="evenodd" clip-rule="evenodd" d="M4.42725 10.0283H8.46983V11.3824H4.42725V10.0283Z" fill="#1565C0"/>
<path fill-rule="evenodd" clip-rule="evenodd" d="M17.9927 0.859253V5.96607H22.9915L17.9927 0.859253Z" fill="#1565C0"/>
<path fill-rule="evenodd" clip-rule="evenodd" d="M16.645 7.32015V0.459351H5.81982V4.61195H13.8601V10.0283H20.6876V11.3824H13.8601V12.7365H20.6876V14.0906L13.8601 14.0907V15.4448H20.6876V16.7989H13.8601V18.153H20.6876V19.5071H13.8601V23.5694H23.3827V7.32015H16.645Z" fill="#1565C0"/>
</svg>
