<svg width="23" height="14" viewBox="0 0 23 14" fill="none" xmlns="http://www.w3.org/2000/svg">
<path fill-rule="evenodd" clip-rule="evenodd" d="M12.6935 0.120375L22.2356 3.06638C23.0412 3.31518 23.0412 4.38497 22.2356 4.63387L12.6931 7.57977C11.997 7.79467 11.4025 7.67537 11.0926 7.57977L4.40248 5.51417C3.98342 5.80367 3.7207 6.26018 3.69463 6.77648C4.009 6.96968 4.23032 7.30237 4.23032 7.70007C4.23032 8.07067 4.03607 8.38247 3.75623 8.58187L4.62957 12.5309C4.7055 12.8743 4.44557 13.2002 4.09528 13.2002H2.17584C1.82584 13.2002 1.56591 12.8743 1.64184 12.5309L2.51518 8.58187C2.23535 8.38247 2.041 8.07067 2.041 7.70007C2.041 7.29137 2.27296 6.94898 2.60236 6.75927C2.62465 6.15357 2.84905 5.60048 3.21407 5.14708L1.55049 4.63347C0.745215 4.38497 0.745215 3.31488 1.55049 3.06638L11.093 0.120375C11.6125 -0.040125 12.1736 -0.040125 12.6935 0.120375ZM10.7709 8.63137C11.2071 8.76607 12.0387 8.93247 13.0147 8.63137L17.9759 7.09957L18.461 11.0002C18.461 12.2153 15.5205 13.2002 11.893 13.2002C8.26554 13.2002 5.32498 12.2153 5.32498 11.0002L5.81002 7.09998L10.7709 8.63137Z" fill="#1565C0"/>
</svg>
