<svg width="15" height="18" viewBox="0 0 15 18" fill="none" xmlns="http://www.w3.org/2000/svg">
<path d="M6.41471 15.504C7.83796 15.5036 9.22019 14.9607 10.3413 13.9615L13.8662 17.9786L15 16.6864L11.4751 12.6693C12.3523 11.3915 12.8291 9.81592 12.8294 8.19351C12.8294 4.16271 9.95162 0.883057 6.41471 0.883057C2.8778 0.883057 0 4.16271 0 8.19351C0 12.2243 2.8778 15.504 6.41471 15.504ZM6.41471 2.71067C9.068 2.71067 11.2257 5.16973 11.2257 8.19351C11.2257 11.2173 9.068 13.6764 6.41471 13.6764C3.76143 13.6764 1.60368 11.2173 1.60368 8.19351C1.60368 5.16973 3.76143 2.71067 6.41471 2.71067Z" fill="#1F3C88"/>
</svg>
