<svg width="40" height="26" viewBox="0 0 40 26" fill="none" xmlns="http://www.w3.org/2000/svg">
<path fill-rule="evenodd" clip-rule="evenodd" d="M39.0825 1.76057C39.3592 0.746571 39.0825 0 37.7575 0H33.3826C32.2693 0 31.756 0.644429 31.4777 1.35571C31.4777 1.35571 29.2527 7.29114 26.1011 11.1466C25.0811 12.2646 24.6178 12.6193 24.0612 12.6193C23.7828 12.6193 23.3645 12.2646 23.3645 11.2487V1.76057C23.3645 0.542286 23.0578 0 22.1312 0H15.2513C14.5564 0 14.138 0.564571 14.138 1.10129C14.138 2.25457 15.7147 2.522 15.8763 5.76829V12.8217C15.8763 14.3687 15.6213 14.6491 15.0647 14.6491C13.5814 14.6491 9.97312 8.68586 7.8315 1.86271C7.41651 0.534857 6.99652 0 5.87821 0H1.49997C0.249995 0 0 0.644429 0 1.35571C0 2.62229 1.4833 8.91429 6.90819 17.2361C10.5248 22.919 15.6163 26 20.2546 26C23.0362 26 23.3795 25.3166 23.3795 24.1373V19.8417C23.3795 18.473 23.6428 18.2 24.5245 18.2C25.1745 18.2 26.2861 18.5566 28.8827 21.2959C31.8493 24.544 32.3377 26 34.0076 26H38.3825C39.6325 26 40.2592 25.3166 39.8992 23.9646C39.5025 22.62 38.0859 20.6681 36.2076 18.3523C35.1876 17.0337 33.6576 15.613 33.1926 14.9017C32.5443 13.9899 32.7293 13.5831 33.1926 12.7716C33.1926 12.7716 38.5259 4.55186 39.0808 1.76057H39.0825Z" fill="white"/>
</svg>
